<svg width="1600" height="980" viewBox="0 0 1600 980" fill="none" xmlns="http://www.w3.org/2000/svg">
<rect width="1600" height="980" fill="#11151C"/>
<g opacity="0.9">
  <path d="M-120 840L590 170" stroke="#2B2F36" stroke-width="210" stroke-linecap="round"/>
  <path d="M1080 -120L820 1100" stroke="#3A3F47" stroke-width="250" stroke-linecap="round"/>
  <path d="M1520 120L620 850" stroke="#2E333B" stroke-width="190" stroke-linecap="round"/>
  <path d="M260 -120L1420 780" stroke="#262B33" stroke-width="170" stroke-linecap="round"/>
</g>
<g opacity="0.95">
  <path d="M-120 840L590 170" stroke="#D7D9DD" stroke-width="6" stroke-dasharray="24 20"/>
  <path d="M1080 -120L820 1100" stroke="#D7D9DD" stroke-width="6" stroke-dasharray="24 20"/>
  <path d="M1520 120L620 850" stroke="#D7D9DD" stroke-width="6" stroke-dasharray="24 20"/>
  <path d="M260 -120L1420 780" stroke="#D7D9DD" stroke-width="6" stroke-dasharray="24 20"/>
</g>
<g opacity="0.12">
  <rect x="1230" y="645" width="180" height="82" rx="12" transform="rotate(-37 1230 645)" fill="#00E26A"/>
  <rect x="540" y="183" width="180" height="82" rx="12" transform="rotate(-42 540 183)" fill="#2ED3FF"/>
  <rect x="890" y="414" width="160" height="72" rx="12" transform="rotate(38 890 414)" fill="#FF2323"/>
</g>
<g opacity="0.55">
  <circle cx="1030" cy="530" r="28" fill="#ECEEF2"/>
  <circle cx="810" cy="770" r="28" fill="#ECEEF2"/>
  <circle cx="1210" cy="308" r="28" fill="#ECEEF2"/>
  <circle cx="590" cy="220" r="28" fill="#ECEEF2"/>
</g>
</svg>
